<mxfile host="app.diagrams.net" modified="2024-05-11T19:52:29.418Z" agent="Mozilla/5.0 (Windows NT 10.0; Win64; x64) AppleWebKit/537.36 (KHTML, like Gecko) Chrome/123.0.0.0 Safari/537.36 OPR/109.0.0.0" version="24.3.1" etag="bo8kEXYeN9QlP-bAbMwP" type="github">
  <diagram name="Page-1" id="8a8yIiI31NGFRckUggVZ">
    <mxGraphModel>
      <root>
        <mxCell id="0" />
        <mxCell id="1" parent="0" />
      </root>
    </mxGraphModel>
  </diagram>
</mxfile>
